<svg id="Layer_1" data-name="Layer 1" xmlns="http://www.w3.org/2000/svg" viewBox="0 0 734.98 123.72"><title>logo turing-bus-2019</title><rect x="230.79" y="29.06" width="14" height="71" style="fill:#980050"/><polygon points="301.79 57.06 287.79 57.06 287.79 71.06 301.79 71.06 301.79 100.06 315.79 100.06 315.79 29.06 301.79 29.06 301.79 57.06" style="fill:#980050"/><polygon points="273.79 43.06 273.79 29.06 259.79 29.06 259.79 100.06 273.79 100.06 273.79 57.06 287.79 57.06 287.79 43.06 273.79 43.06" style="fill:#980050"/><rect x="202.79" y="43.06" width="14" height="14" style="fill:#980050"/><polygon points="173.79 43.06 202.79 43.06 202.79 29.06 159.79 29.06 159.79 100.06 173.79 100.06 173.79 71.06 202.79 71.06 202.79 57.06 173.79 57.06 173.79 43.06" style="fill:#980050"/><rect x="202.79" y="71.06" width="14" height="29" style="fill:#980050"/><polygon points="30.79 43.06 45.79 43.06 45.79 100.06 59.79 100.06 59.79 43.06 73.79 43.06 73.79 29.06 30.79 29.06 30.79 43.06" style="fill:#980050"/><rect x="101.79" y="86.06" width="29" height="14" style="fill:#980050"/><rect x="87.79" y="29.06" width="14" height="57" style="fill:#980050"/><rect x="130.79" y="29.06" width="14" height="57" style="fill:#980050"/><path d="M503.73,31.06l-9.94,0-.07-21-83.93.26.06,20.74-10.06,0,.06,21,10.94,0,.15,52h4.85l0,10,10,0,0-10,52-.15,0,10.15,10,0,0-10h5l-.16-52,11.16,0ZM425.81,93.6a5.19,5.19,0,0,1,0-10.38,5.19,5.19,0,0,1,0,10.38Zm15-.16,0-10.38,21-.06,0,10.38C454.74,99,447.73,99.16,440.79,93.44Zm37-.38a5,5,0,0,1,0-10,5,5,0,1,1,0,10Zm-57-19.81-.16-52.19L452.17,21l-21,21.09,9.93,0,20.84-21L482.79,21,483,73.06Z" style="fill:#7a7b7a"/><rect x="590.79" y="29.06" width="14" height="57" style="fill:#007897"/><rect x="604.79" y="86.06" width="29" height="14" style="fill:#007897"/><rect x="633.79" y="29.06" width="14" height="57" style="fill:#007897"/><polygon points="575.79 86.06 575.79 72.06 561.79 72.13 561.79 86.06 575.79 86.06" style="fill:#007897"/><polygon points="532.79 44.06 561.79 44.06 561.79 29.06 518.79 29.06 518.79 100.06 561.79 100.06 561.79 86.06 532.79 86.06 532.79 72.06 561.79 71.99 561.79 58.06 532.79 58.06 532.79 44.06" style="fill:#007897"/><rect x="561.79" y="44.06" width="14" height="14" style="fill:#007897"/><rect x="344.79" y="29.06" width="29" height="14" style="fill:#980050"/><rect x="330.79" y="43.06" width="14" height="43" style="fill:#980050"/><polygon points="358.79 72.06 372.79 72.06 372.79 86.06 344.79 86.06 344.79 100.06 373.79 100.06 373.79 86.06 387.79 86.06 387.79 57.06 358.79 57.06 358.79 72.06" style="fill:#980050"/><polygon points="704.79 43.06 704.79 29.06 675.79 29.06 675.79 43.06 661.79 43.13 661.79 57.06 675.79 57.06 675.79 43.06 704.79 43.06" style="fill:#007897"/><polygon points="689.79 72.06 689.79 86.06 661.79 86.06 661.79 100.06 690.79 100.06 690.79 86.06 704.79 86.06 704.79 72.06 690.79 72.06 690.79 57.06 675.79 57.06 675.79 72.06 689.79 72.06" style="fill:#007897"/></svg>