<?xml version="1.0" encoding="utf-8"?>
<!-- Generator: Adobe Illustrator 22.1.0, SVG Export Plug-In . SVG Version: 6.00 Build 0)  -->
<svg version="1.1" id="LOGO" xmlns="http://www.w3.org/2000/svg" xmlns:xlink="http://www.w3.org/1999/xlink" x="0px" y="0px"
	 viewBox="0 0 243.8 172.9" enable-background="new 0 0 243.8 172.9" xml:space="preserve">
<rect x="25.5" y="53" fill="#FFFFFF" width="192.5" height="30.6"/>
<path fill="#980050" d="M25.5,76.8v72.5H205c7.2,0,13-5.8,13-13l0-59.6H25.5z"/>
<g>
	<defs>
		<rect id="SVGID_1_" x="25.5" y="53" width="141.4" height="21.8"/>
	</defs>
	<use xlink:href="#SVGID_1_"  overflow="visible" fill="#7A7B7A"/>
	<clipPath id="SVGID_2_">
		<use xlink:href="#SVGID_1_"  overflow="visible"/>
	</clipPath>
	<rect x="25.5" y="53" clip-path="url(#SVGID_2_)" fill="#7A7B7A" width="141.4" height="21.8"/>
</g>
<rect x="169" y="53" fill="#007987" width="49" height="21.8"/>
<path fill="#FFFFFF" d="M48.5,108.2L43,98.5l-3.3,4v5.7h-3V88.5h3v9.9l8-9.9h3.6L45,96.2l7,12H48.5z"/>
<path fill="#FFFFFF" d="M62.5,108.3c-4,0-7-2.7-7-6.8v-13h3v12.9c0,2.6,1.6,4.3,4.1,4.3c2.5,0,4.1-1.6,4.1-4.3V88.5h3v13
	C69.6,105.6,66.6,108.3,62.5,108.3z M58.3,86.5v-3h2.5v3H58.3z M64.3,86.5v-3h2.5v3H64.3z"/>
<path fill="#FFFFFF" d="M87.4,108.2l-9.1-13.8v13.8h-3V88.5h2.7l9.1,13.8V88.5h3v19.7H87.4z"/>
<path fill="#FFFFFF" d="M101.5,108.3c-3,0-5.1-0.7-7-2.6l2-2c1.4,1.4,3.1,1.9,5.1,1.9c2.6,0,4.1-1.1,4.1-3c0-0.9-0.2-1.6-0.8-2
	c-0.5-0.4-1.2-0.7-2.2-0.8l-2.3-0.3c-1.6-0.2-2.8-0.7-3.7-1.6c-1-0.9-1.5-2.2-1.5-3.8c0-3.4,2.5-5.7,6.6-5.7c2.6,0,4.4,0.7,6.1,2.2
	l-1.9,1.9c-1.2-1.2-2.7-1.5-4.3-1.5c-2.3,0-3.6,1.3-3.6,3.1c0,0.7,0.2,1.4,0.7,1.8c0.5,0.4,1.1,0.7,2.2,0.9l2.3,0.4
	c1.8,0.3,2.8,0.7,3.6,1.5c1.1,1,1.6,2.3,1.6,4C108.5,106.2,105.6,108.3,101.5,108.3z"/>
<path fill="#FFFFFF" d="M120.1,91.2v17h-3v-17h-5.4v-2.7h13.8v2.7H120.1z"/>
<path fill="#FFFFFF" d="M129.8,108.2V88.5h3v17h9.5v2.7H129.8z"/>
<path fill="#FFFFFF" d="M146.6,108.2V88.5h3v19.7H146.6z"/>
<path fill="#FFFFFF" d="M162,108.3c-2.2,0-3.8-0.7-5.1-2c-1.9-1.9-2-3.9-2-8c0-4.1,0.1-6.1,2-8c1.3-1.3,2.9-2,5.1-2
	c3.6,0,6.3,2.2,7,6.1h-3c-0.4-2-1.8-3.4-4-3.4c-1.2,0-2.2,0.4-2.9,1.2c-1,1.1-1.2,2.2-1.2,6.1s0.2,5.1,1.2,6.1
	c0.7,0.8,1.7,1.2,2.9,1.2c2.2,0,3.6-1.4,4-3.4h3C168.3,106.2,165.6,108.3,162,108.3z"/>
<path fill="#FFFFFF" d="M184.9,108.2v-8.6h-8v8.6h-3V88.5h3v8.4h8v-8.4h3v19.7H184.9z"/>
<path fill="#FFFFFF" d="M193.9,108.2V88.5h12.6v2.7h-9.6v5.7h8.2v2.7h-8.2v5.9h9.6v2.7H193.9z"/>
<path fill="#FFFFFF" d="M36.7,137.4v-19.7h3v19.7H36.7z"/>
<path fill="#FFFFFF" d="M57.3,137.4l-9.1-13.8v13.8h-3v-19.7H48l9.1,13.8v-13.8h3v19.7H57.3z"/>
<path fill="#FFFFFF" d="M72.2,120.4v17h-3v-17h-5.4v-2.7h13.8v2.7H72.2z"/>
<path fill="#FFFFFF" d="M81.4,137.4v-19.7H94v2.7h-9.6v5.7h8.2v2.7h-8.2v5.9H94v2.7H81.4z"/>
<path fill="#FFFFFF" d="M98.5,137.4v-19.7h3v17h9.5v2.7H98.5z"/>
<path fill="#FFFFFF" d="M114.7,137.4v-19.7h3v17h9.5v2.7H114.7z"/>
<path fill="#FFFFFF" d="M131,137.4v-19.7h3v19.7H131z"/>
<path fill="#FFFFFF" d="M151.3,135.3c-1.5,1.5-3.3,2.2-5.4,2.2c-2.2,0-3.8-0.7-5.1-2c-1.9-1.9-2-3.9-2-8c0-4.1,0.1-6.1,2-8
	c1.3-1.3,2.9-2,5.1-2c4.1,0,6.6,2.7,7.1,6.1h-3c-0.5-2.2-1.9-3.4-4.1-3.4c-1.2,0-2.2,0.4-2.9,1.2c-1,1.1-1.2,2.2-1.2,6.1
	c0,3.9,0.2,5.1,1.2,6.1c0.7,0.8,1.7,1.2,2.9,1.2c1.3,0,2.5-0.5,3.2-1.4c0.7-0.8,1-1.8,1-3.1v-1.1h-4.2v-2.5h7.2v3
	C153,132.3,152.6,133.9,151.3,135.3z"/>
<path fill="#FFFFFF" d="M157.8,137.4v-19.7h12.6v2.7h-9.6v5.7h8.2v2.7h-8.2v5.9h9.6v2.7H157.8z"/>
<path fill="#FFFFFF" d="M186.9,137.4l-9.1-13.8v13.8h-3v-19.7h2.7l9.1,13.8v-13.8h3v19.7H186.9z"/>
<path fill="#FFFFFF" d="M194,137.4v-2.6l9.1-14.4h-8.7v-2.7h12.2v2.4l-9.1,14.6h9.1v2.7H194z"/>
<g>
	<path fill="#FFFFFF" d="M43,68.3h-1.2l-1.3-4.4l-1.3,4.4H38L36,61h1.5l1.1,4.6l1.3-4.6H41l1.3,4.6l1.1-4.6h1.5L43,68.3z"/>
	<path fill="#FFFFFF" d="M48.1,62.1V61h1.4v1.1H48.1z M48.1,68.3v-5.2h1.3v5.2H48.1z"/>
	<path fill="#FFFFFF" d="M55,68.4c-0.8,0-1.6-0.1-2.3-0.8l0.9-0.9c0.4,0.4,1,0.5,1.4,0.5c0.5,0,0.9-0.2,0.9-0.6
		c0-0.3-0.1-0.4-0.6-0.5l-0.9-0.1C53.6,66,53,65.6,53,64.6c0-1.1,1-1.7,2.1-1.7c0.8,0,1.5,0.2,2,0.6l-0.8,0.8C56,64.1,55.5,64,55,64
		c-0.5,0-0.8,0.2-0.8,0.5c0,0.3,0.2,0.4,0.6,0.5l0.8,0.1c1.1,0.1,1.6,0.7,1.6,1.6C57.3,67.8,56.3,68.4,55,68.4z"/>
	<path fill="#FFFFFF" d="M62.5,68.4c-0.8,0-1.6-0.1-2.3-0.8l0.9-0.9c0.4,0.4,1,0.5,1.4,0.5c0.5,0,0.9-0.2,0.9-0.6
		c0-0.3-0.1-0.4-0.6-0.5L62,66.1c-0.9-0.1-1.5-0.5-1.5-1.5c0-1.1,1-1.7,2.1-1.7c0.8,0,1.5,0.2,2,0.6l-0.8,0.8
		C63.4,64.1,63,64,62.5,64c-0.5,0-0.8,0.2-0.8,0.5c0,0.3,0.2,0.4,0.6,0.5l0.8,0.1c1.1,0.1,1.6,0.7,1.6,1.6
		C64.7,67.8,63.7,68.4,62.5,68.4z"/>
	<path fill="#FFFFFF" d="M69.2,66c0,0.7,0.4,1.2,1.2,1.2c0.6,0,0.9-0.2,1.2-0.5l0.8,0.8c-0.5,0.6-1.1,0.8-2,0.8
		c-1.3,0-2.5-0.6-2.5-2.7c0-1.7,0.9-2.7,2.3-2.7c1.5,0,2.3,1.1,2.3,2.6V66H69.2z M71.1,64.6C71,64.3,70.7,64,70.2,64
		s-0.7,0.2-0.9,0.6c-0.1,0.2-0.1,0.3-0.1,0.6h2C71.2,64.9,71.2,64.8,71.1,64.6z"/>
	<path fill="#FFFFFF" d="M79.2,68.3v-3.2c0-0.7-0.5-1-0.9-1c-0.4,0-0.9,0.2-0.9,1v3.2h-1.3V63h1.3v0.5c0.3-0.4,0.8-0.6,1.3-0.6
		c0.5,0,1,0.2,1.3,0.5c0.4,0.4,0.5,0.9,0.5,1.5v3.4H79.2z"/>
	<path fill="#FFFFFF" d="M86,68.4c-0.8,0-1.6-0.1-2.3-0.8l0.9-0.9c0.4,0.4,1,0.5,1.4,0.5c0.5,0,0.9-0.2,0.9-0.6
		c0-0.3-0.1-0.4-0.6-0.5l-0.9-0.1c-0.9-0.1-1.5-0.5-1.5-1.5c0-1.1,1-1.7,2.1-1.7c0.8,0,1.5,0.2,2,0.6l-0.8,0.8
		C87,64.1,86.6,64,86.1,64c-0.5,0-0.8,0.2-0.8,0.5c0,0.3,0.2,0.4,0.6,0.5l0.8,0.1c1.1,0.1,1.6,0.7,1.6,1.6
		C88.3,67.8,87.3,68.4,86,68.4z"/>
	<path fill="#FFFFFF" d="M93.9,68.4c-1.1,0-2.4-0.6-2.4-2.7c0-2.2,1.3-2.7,2.4-2.7c0.7,0,1.3,0.2,1.8,0.7l-0.9,0.9
		c-0.3-0.3-0.5-0.4-0.9-0.4c-0.3,0-0.6,0.1-0.8,0.3c-0.2,0.3-0.3,0.6-0.3,1.2s0.1,0.9,0.3,1.2c0.2,0.2,0.4,0.3,0.8,0.3
		c0.3,0,0.6-0.1,0.9-0.4l0.9,0.9C95.2,68.1,94.6,68.4,93.9,68.4z"/>
	<path fill="#FFFFFF" d="M102.1,68.3v-3.2c0-0.7-0.5-1-0.9-1c-0.4,0-0.9,0.2-0.9,1v3.2H99V61h1.3v2.4c0.3-0.4,0.8-0.6,1.3-0.6
		c0.5,0,1,0.2,1.3,0.5c0.4,0.4,0.5,0.9,0.5,1.5v3.4H102.1z"/>
	<path fill="#FFFFFF" d="M109.9,68.3v-0.5c-0.4,0.4-0.7,0.5-1.3,0.5c-0.6,0-1.1-0.2-1.4-0.5c-0.3-0.3-0.4-0.7-0.4-1.2
		c0-0.8,0.6-1.5,1.8-1.5h1.2v-0.3c0-0.6-0.3-0.8-1-0.8c-0.5,0-0.7,0.1-1,0.5l-0.8-0.8c0.5-0.6,1-0.8,1.9-0.8c1.5,0,2.3,0.6,2.3,1.9
		v3.5H109.9z M109.9,66h-1c-0.5,0-0.8,0.2-0.8,0.6c0,0.4,0.3,0.6,0.8,0.6c0.3,0,0.6,0,0.8-0.3c0.2-0.1,0.2-0.3,0.2-0.7V66z"/>
	<path fill="#FFFFFF" d="M116.5,64.1v4.2h-1.3v-4.2h-0.6v-1h0.6v-0.7c0-0.8,0.5-1.5,1.6-1.5h0.8v1.1h-0.5c-0.3,0-0.5,0.2-0.5,0.5
		v0.6h1v1H116.5z"/>
	<path fill="#FFFFFF" d="M122.5,68.3c-1.1,0-1.5-0.8-1.5-1.5v-2.6h-0.6v-1h0.6v-1.6h1.3v1.6h0.9v1h-0.9v2.6c0,0.3,0.1,0.5,0.5,0.5
		h0.5v1.1H122.5z"/>
	<path fill="#FFFFFF" d="M128.5,68.4c-0.8,0-1.6-0.1-2.3-0.8l0.9-0.9c0.4,0.4,1,0.5,1.4,0.5c0.5,0,0.9-0.2,0.9-0.6
		c0-0.3-0.1-0.4-0.6-0.5l-0.9-0.1c-0.9-0.1-1.5-0.5-1.5-1.5c0-1.1,1-1.7,2.1-1.7c0.8,0,1.5,0.2,2,0.6l-0.8,0.8
		c-0.3-0.3-0.8-0.4-1.2-0.4c-0.5,0-0.8,0.2-0.8,0.5c0,0.3,0.2,0.4,0.6,0.5l0.8,0.1c1.1,0.1,1.6,0.7,1.6,1.6
		C130.8,67.8,129.8,68.4,128.5,68.4z"/>
	<path fill="#FFFFFF" d="M134,70.3h-0.8v-1.1h0.5c0.3,0,0.5-0.2,0.5-0.5v-5.6h1.3v5.6C135.6,69.5,135.1,70.3,134,70.3z M134.2,62.1
		V61h1.4v1.1H134.2z"/>
	<path fill="#FFFFFF" d="M142.1,68.3v-0.5c-0.4,0.4-0.7,0.5-1.3,0.5c-0.6,0-1.1-0.2-1.4-0.5c-0.3-0.3-0.4-0.7-0.4-1.2
		c0-0.8,0.6-1.5,1.8-1.5h1.2v-0.3c0-0.6-0.3-0.8-1-0.8c-0.5,0-0.7,0.1-1,0.5l-0.8-0.8c0.5-0.6,1-0.8,1.9-0.8c1.5,0,2.3,0.6,2.3,1.9
		v3.5H142.1z M142.1,66h-1c-0.5,0-0.8,0.2-0.8,0.6c0,0.4,0.3,0.6,0.8,0.6c0.3,0,0.6,0,0.8-0.3c0.2-0.1,0.2-0.3,0.2-0.7V66z"/>
	<path fill="#FFFFFF" d="M150.3,68.3v-3.2c0-0.7-0.5-1-0.9-1c-0.4,0-0.9,0.2-0.9,1v3.2h-1.3V61h1.3v2.4c0.3-0.4,0.8-0.6,1.3-0.6
		c0.5,0,1,0.2,1.3,0.5c0.4,0.4,0.5,0.9,0.5,1.5v3.4H150.3z"/>
	<path fill="#FFFFFF" d="M158.3,64.4c-0.2-0.2-0.4-0.3-0.7-0.3c-0.4,0-0.9,0.3-0.9,1v3.2h-1.3V63h1.3v0.5c0.3-0.3,0.8-0.6,1.3-0.6
		c0.5,0,0.9,0.1,1.3,0.5L158.3,64.4z"/>
</g>
<g>
	<path fill="#FFFFFF" d="M176.1,68.3v-1.2l2.7-3.2c0.3-0.3,0.4-0.5,0.4-0.9c0-0.5-0.3-0.9-0.9-0.9c-0.4,0-0.9,0.2-0.9,0.9h-1.3
		c0-1.3,1-2.1,2.2-2.1c1.3,0,2.2,0.8,2.2,2.1c0,0.7-0.3,1.1-0.8,1.7l-2,2.4h2.8v1.2H176.1z"/>
	<path fill="#FFFFFF" d="M187,68.4c-1.2,0-2.2-0.8-2.2-2.2v-3.1c0-1.4,1-2.2,2.2-2.2c1.2,0,2.2,0.8,2.2,2.2v3.1
		C189.2,67.6,188.2,68.4,187,68.4z M187.9,63.1c0-0.6-0.3-1-0.9-1c-0.5,0-0.9,0.4-0.9,1v3c0,0.6,0.4,1,0.9,1c0.5,0,0.9-0.4,0.9-1
		V63.1z"/>
	<path fill="#FFFFFF" d="M195.4,68.3v-5.8l-1.5,1.3v-1.4l1.5-1.3h1.3v7.3H195.4z"/>
	<path fill="#FFFFFF" d="M206.1,65.1l-1.5,3.1h-1.4l1.5-3c-0.2,0.1-0.4,0.1-0.5,0.1c-1,0-1.9-0.8-1.9-2.2c0-1.4,1-2.3,2.3-2.3
		s2.3,0.8,2.3,2.2C206.7,63.9,206.4,64.5,206.1,65.1z M204.4,62.2c-0.5,0-0.9,0.4-0.9,1.1c0,0.6,0.4,1.1,0.9,1.1
		c0.5,0,0.9-0.4,0.9-1.1S204.9,62.2,204.4,62.2z"/>
</g>
<path fill="#181716" d="M36.8,32v-7h4.4V26h-3.4v2h2.9v0.9h-2.9V31h3.4V32H36.8z"/>
<path fill="#181716" d="M42.6,26V25h1.1V26H42.6z M42.6,32v-5h1v5H42.6z"/>
<path fill="#181716" d="M48.2,32v-3c0-0.8-0.4-1.1-1-1.1s-1,0.3-1,1.1v3h-1v-5h1v0.5c0.3-0.4,0.8-0.6,1.3-0.6c0.5,0,0.9,0.2,1.2,0.4
	c0.4,0.4,0.5,0.8,0.5,1.4V32H48.2z"/>
<path fill="#181716" d="M51.5,29.8c0,0.9,0.4,1.4,1.3,1.4c0.6,0,0.8-0.2,1.2-0.5l0.6,0.6c-0.5,0.5-1,0.8-1.9,0.8
	c-1.2,0-2.2-0.7-2.2-2.5c0-1.6,0.8-2.5,2.1-2.5c1.3,0,2.1,1,2.1,2.4v0.4H51.5z M53.6,28.4c-0.2-0.4-0.5-0.6-1-0.6
	c-0.5,0-0.8,0.3-1,0.6c-0.1,0.2-0.1,0.4-0.1,0.7h2.2C53.7,28.8,53.7,28.6,53.6,28.4z"/>
<path fill="#181716" d="M58.5,32v-7h1.1v7H58.5z"/>
<path fill="#181716" d="M64.3,32v-3c0-0.8-0.4-1.1-1-1.1s-1,0.3-1,1.1v3h-1v-5h1v0.5c0.3-0.4,0.8-0.6,1.3-0.6c0.5,0,0.9,0.2,1.2,0.4
	c0.4,0.4,0.5,0.8,0.5,1.4V32H64.3z"/>
<path fill="#181716" d="M66.8,26V25h1.1V26H66.8z M66.8,32v-5h1v5H66.8z"/>
<path fill="#181716" d="M70.8,32c-0.9,0-1.4-0.7-1.4-1.4v-2.8h-0.6V27h0.6v-1.4h1V27h1v0.8h-1v2.8c0,0.4,0.2,0.6,0.5,0.6h0.4V32
	H70.8z"/>
<path fill="#181716" d="M72.7,26V25h1.1V26H72.7z M72.7,32v-5h1v5H72.7z"/>
<path fill="#181716" d="M78,32v-0.4c-0.4,0.4-0.7,0.5-1.3,0.5s-1-0.1-1.3-0.4c-0.3-0.3-0.4-0.6-0.4-1.1c0-0.8,0.6-1.4,1.7-1.4h1.3
	v-0.4c0-0.6-0.3-0.9-1.1-0.9c-0.5,0-0.8,0.1-1.1,0.5l-0.6-0.6c0.5-0.5,0.9-0.7,1.8-0.7c1.4,0,2,0.6,2,1.7V32H78z M77.9,29.8h-1.1
	c-0.6,0-0.9,0.3-0.9,0.7s0.3,0.7,0.9,0.7c0.4,0,0.6,0,0.9-0.3c0.2-0.1,0.2-0.4,0.2-0.7V29.8z"/>
<path fill="#181716" d="M81.9,32c-0.9,0-1.4-0.7-1.4-1.4v-2.8H80V27h0.6v-1.4h1V27h1v0.8h-1v2.8c0,0.4,0.2,0.6,0.5,0.6h0.4V32H81.9z
	"/>
<path fill="#181716" d="M83.8,26V25h1.1V26H83.8z M83.8,32v-5h1v5H83.8z"/>
<path fill="#181716" d="M88.3,32h-0.8l-1.8-5h1.1l1.2,3.5l1.2-3.5h1.1L88.3,32z"/>
<path fill="#181716" d="M91.6,29.8c0,0.9,0.4,1.4,1.3,1.4c0.6,0,0.8-0.2,1.2-0.5l0.6,0.6c-0.5,0.5-1,0.8-1.9,0.8
	c-1.2,0-2.2-0.7-2.2-2.5c0-1.6,0.8-2.5,2.1-2.5c1.3,0,2.1,1,2.1,2.4v0.4H91.6z M93.7,28.4c-0.2-0.4-0.5-0.6-1-0.6
	c-0.5,0-0.8,0.3-1,0.6c-0.1,0.2-0.1,0.4-0.1,0.7h2.2C93.8,28.8,93.8,28.6,93.7,28.4z"/>
<path fill="#181716" d="M101.4,32v-0.5c-0.4,0.4-0.8,0.6-1.3,0.6c-0.5,0-0.9-0.2-1.2-0.4c-0.5-0.5-0.6-1.3-0.6-2.1
	c0-0.8,0.1-1.6,0.6-2.1c0.3-0.3,0.7-0.4,1.2-0.4c0.5,0,0.9,0.1,1.3,0.6V25h1v7H101.4z M100.3,27.8c-0.9,0-1,0.8-1,1.6s0.1,1.7,1,1.7
	c0.9,0,1-0.8,1-1.7S101.2,27.8,100.3,27.8z"/>
<path fill="#181716" d="M104.6,29.8c0,0.9,0.4,1.4,1.3,1.4c0.6,0,0.8-0.2,1.2-0.5l0.6,0.6c-0.5,0.5-1,0.8-1.9,0.8
	c-1.2,0-2.2-0.7-2.2-2.5c0-1.6,0.8-2.5,2.1-2.5c1.3,0,2.1,1,2.1,2.4v0.4H104.6z M106.7,28.4c-0.2-0.4-0.5-0.6-1-0.6
	c-0.5,0-0.8,0.3-1,0.6c-0.1,0.2-0.1,0.4-0.1,0.7h2.2C106.9,28.8,106.8,28.6,106.7,28.4z"/>
<path fill="#181716" d="M110.8,32c-0.8,0-1.5-0.1-2.1-0.7l0.7-0.7c0.4,0.4,0.9,0.5,1.4,0.5c0.6,0,1.1-0.2,1.1-0.7
	c0-0.3-0.2-0.5-0.7-0.6l-0.8-0.1c-0.9-0.1-1.5-0.5-1.5-1.4c0-1,0.8-1.5,1.9-1.5c0.8,0,1.4,0.2,1.8,0.6l-0.6,0.6
	c-0.3-0.3-0.8-0.4-1.2-0.4c-0.6,0-0.9,0.3-0.9,0.6c0,0.3,0.2,0.5,0.7,0.6l0.7,0.1c1,0.1,1.6,0.5,1.6,1.4C112.8,31.5,112,32,110.8,32
	z"/>
<path fill="#181716" d="M119.3,32h-2.8v-7h2.7c1.3,0,2.1,0.7,2.1,1.9c0,0.8-0.5,1.3-0.9,1.5c0.5,0.2,1,0.7,1,1.6
	C121.4,31.3,120.6,32,119.3,32z M119.1,26h-1.6v2h1.6c0.7,0,1.1-0.4,1.1-1S119.8,26,119.1,26z M119.2,28.9h-1.7V31h1.7
	c0.7,0,1.1-0.4,1.1-1.1S120,28.9,119.2,28.9z"/>
<path fill="#181716" d="M125.9,32v-0.5c-0.3,0.4-0.8,0.6-1.3,0.6c-0.5,0-0.9-0.2-1.2-0.4c-0.4-0.4-0.5-0.8-0.5-1.4V27h1v3
	c0,0.8,0.4,1.1,1,1.1s1-0.3,1-1.1v-3h1v5H125.9z"/>
<path fill="#181716" d="M131.5,32v-3c0-0.8-0.4-1.1-1-1.1s-1,0.3-1,1.1v3h-1v-5h1v0.5c0.3-0.4,0.8-0.6,1.3-0.6
	c0.5,0,0.9,0.2,1.2,0.4c0.4,0.4,0.5,0.8,0.5,1.4V32H131.5z"/>
<path fill="#181716" d="M136.8,32v-0.5c-0.4,0.4-0.8,0.6-1.3,0.6c-0.5,0-0.9-0.2-1.2-0.4c-0.5-0.5-0.6-1.3-0.6-2.1
	c0-0.8,0.1-1.6,0.6-2.1c0.3-0.3,0.7-0.4,1.2-0.4c0.5,0,0.9,0.1,1.3,0.6V25h1v7H136.8z M135.8,27.8c-0.9,0-1,0.8-1,1.6s0.1,1.7,1,1.7
	c0.9,0,1-0.8,1-1.7S136.7,27.8,135.8,27.8z"/>
<path fill="#181716" d="M140.1,29.8c0,0.9,0.4,1.4,1.3,1.4c0.6,0,0.8-0.2,1.2-0.5l0.6,0.6c-0.5,0.5-1,0.8-1.9,0.8
	c-1.2,0-2.2-0.7-2.2-2.5c0-1.6,0.8-2.5,2.1-2.5c1.3,0,2.1,1,2.1,2.4v0.4H140.1z M142.2,28.4c-0.2-0.4-0.5-0.6-1-0.6
	c-0.5,0-0.8,0.3-1,0.6c-0.1,0.2-0.1,0.4-0.1,0.7h2.2C142.3,28.8,142.3,28.6,142.2,28.4z"/>
<path fill="#181716" d="M146.3,32c-0.8,0-1.5-0.1-2.1-0.7l0.7-0.7c0.4,0.4,0.9,0.5,1.4,0.5c0.6,0,1.1-0.2,1.1-0.7
	c0-0.3-0.2-0.5-0.7-0.6l-0.8-0.1c-0.9-0.1-1.5-0.5-1.5-1.4c0-1,0.8-1.5,1.9-1.5c0.8,0,1.4,0.2,1.8,0.6l-0.6,0.6
	c-0.3-0.3-0.8-0.4-1.2-0.4c-0.6,0-0.9,0.3-0.9,0.6c0,0.3,0.2,0.5,0.7,0.6l0.7,0.1c1,0.1,1.6,0.5,1.6,1.4
	C148.3,31.5,147.4,32,146.3,32z"/>
<path fill="#181716" d="M155.6,32v-3c0-0.8-0.4-1.1-1-1.1c-0.5,0-1,0.3-1,1.1V32h-1v-3c0-0.8-0.4-1.1-1-1.1s-1,0.3-1,1.1v3h-1v-5h1
	v0.5c0.3-0.4,0.8-0.6,1.3-0.6c0.6,0,1.1,0.2,1.4,0.7c0.4-0.5,0.9-0.7,1.6-0.7c0.5,0,1,0.2,1.2,0.4c0.4,0.4,0.5,0.8,0.5,1.4V32H155.6
	z"/>
<path fill="#181716" d="M158.1,26V25h1.1V26H158.1z M158.1,32v-5h1v5H158.1z"/>
<path fill="#181716" d="M163.7,32v-3c0-0.8-0.4-1.1-1-1.1s-1,0.3-1,1.1v3h-1v-5h1v0.5c0.3-0.4,0.8-0.6,1.3-0.6
	c0.5,0,0.9,0.2,1.2,0.4c0.4,0.4,0.5,0.8,0.5,1.4V32H163.7z"/>
<path fill="#181716" d="M166.2,26V25h1.1V26H166.2z M166.2,32v-5h1v5H166.2z"/>
<path fill="#181716" d="M170.4,32c-0.8,0-1.5-0.1-2.1-0.7l0.7-0.7c0.4,0.4,0.9,0.5,1.4,0.5c0.6,0,1.1-0.2,1.1-0.7
	c0-0.3-0.2-0.5-0.7-0.6l-0.8-0.1c-0.9-0.1-1.5-0.5-1.5-1.4c0-1,0.8-1.5,1.9-1.5c0.8,0,1.4,0.2,1.8,0.6l-0.6,0.6
	c-0.3-0.3-0.8-0.4-1.2-0.4c-0.6,0-0.9,0.3-0.9,0.6c0,0.3,0.2,0.5,0.7,0.6l0.7,0.1c1,0.1,1.6,0.5,1.6,1.4
	C172.5,31.5,171.6,32,170.4,32z"/>
<path fill="#181716" d="M175.1,32c-0.9,0-1.4-0.7-1.4-1.4v-2.8h-0.6V27h0.6v-1.4h1V27h1v0.8h-1v2.8c0,0.4,0.2,0.6,0.5,0.6h0.4V32
	H175.1z"/>
<path fill="#181716" d="M177.6,29.8c0,0.9,0.4,1.4,1.3,1.4c0.6,0,0.8-0.2,1.2-0.5l0.6,0.6c-0.5,0.5-1,0.8-1.9,0.8
	c-1.2,0-2.2-0.7-2.2-2.5c0-1.6,0.8-2.5,2.1-2.5c1.3,0,2.1,1,2.1,2.4v0.4H177.6z M179.7,28.4c-0.2-0.4-0.5-0.6-1-0.6
	c-0.5,0-0.8,0.3-1,0.6c-0.1,0.2-0.1,0.4-0.1,0.7h2.2C179.8,28.8,179.8,28.6,179.7,28.4z"/>
<path fill="#181716" d="M184.9,28.2c-0.2-0.2-0.4-0.3-0.7-0.3c-0.5,0-1,0.4-1,1.1v3h-1v-5h1v0.5c0.3-0.4,0.8-0.6,1.3-0.6
	c0.5,0,0.8,0.1,1.2,0.5L184.9,28.2z"/>
<path fill="#181716" d="M186.4,26V25h1.1V26H186.4z M186.4,32v-5h1v5H186.4z"/>
<path fill="#181716" d="M192,32v-0.5c-0.3,0.4-0.8,0.6-1.3,0.6c-0.5,0-0.9-0.2-1.2-0.4c-0.4-0.4-0.5-0.8-0.5-1.4V27h1v3
	c0,0.8,0.4,1.1,1,1.1s1-0.3,1-1.1v-3h1v5H192z"/>
<path fill="#181716" d="M200.6,32v-3c0-0.8-0.4-1.1-1-1.1c-0.5,0-1,0.3-1,1.1V32h-1v-3c0-0.8-0.4-1.1-1-1.1s-1,0.3-1,1.1v3h-1v-5h1
	v0.5c0.3-0.4,0.8-0.6,1.3-0.6c0.6,0,1.1,0.2,1.4,0.7c0.4-0.5,0.9-0.7,1.6-0.7c0.5,0,1,0.2,1.2,0.4c0.4,0.4,0.5,0.8,0.5,1.4V32H200.6
	z"/>
<path fill="#181716" d="M204.8,32c-0.8,0-1.5-0.1-2.1-0.7l0.7-0.7c0.4,0.4,0.9,0.5,1.4,0.5c0.6,0,1.1-0.2,1.1-0.7
	c0-0.3-0.2-0.5-0.7-0.6l-0.8-0.1c-0.9-0.1-1.5-0.5-1.5-1.4c0-1,0.8-1.5,1.9-1.5c0.8,0,1.4,0.2,1.8,0.6l-0.6,0.6
	c-0.3-0.3-0.8-0.4-1.2-0.4c-0.6,0-0.9,0.3-0.9,0.6c0,0.3,0.2,0.5,0.7,0.6l0.7,0.1c1,0.1,1.6,0.5,1.6,1.4
	C206.8,31.5,205.9,32,204.8,32z"/>
<path fill="#181716" d="M38,38.3v4.2h-1v-4.2h-0.6v-0.8H37v-0.7c0-0.7,0.4-1.4,1.4-1.4H39v0.8h-0.4c-0.4,0-0.5,0.2-0.5,0.6v0.6h1
	v0.8H38z"/>
<path fill="#181716" d="M43.1,42.5V42c-0.3,0.4-0.8,0.6-1.3,0.6c-0.5,0-0.9-0.2-1.2-0.4c-0.4-0.4-0.5-0.8-0.5-1.4v-3.2h1v3
	c0,0.8,0.4,1.1,1,1.1s1-0.3,1-1.1v-3h1v5H43.1z M40.5,36.6v-1.1h0.9v1.1H40.5z M42.6,36.6v-1.1h0.9v1.1H42.6z"/>
<path fill="#181716" d="M48.4,38.7c-0.2-0.2-0.4-0.3-0.7-0.3c-0.5,0-1,0.4-1,1.1v3h-1v-5h1v0.5c0.3-0.4,0.8-0.6,1.3-0.6
	c0.5,0,0.8,0.1,1.2,0.5L48.4,38.7z"/>
<path fill="#181716" d="M55.2,42.5h-2.8v-7h2.7c1.3,0,2.1,0.7,2.1,1.9c0,0.8-0.5,1.3-0.9,1.5c0.5,0.2,1,0.7,1,1.6
	C57.3,41.8,56.4,42.5,55.2,42.5z M55,36.5h-1.6v2H55c0.7,0,1.1-0.4,1.1-1S55.7,36.5,55,36.5z M55.1,39.5h-1.7v2.1h1.7
	c0.7,0,1.1-0.4,1.1-1.1S55.8,39.5,55.1,39.5z"/>
<path fill="#181716" d="M58.7,36.6v-1.1h1.1v1.1H58.7z M58.8,42.5v-5h1v5H58.8z"/>
<path fill="#181716" d="M62.7,42.5c-0.9,0-1.4-0.6-1.4-1.4v-5.6h1v5.5c0,0.4,0.1,0.6,0.5,0.6h0.4v0.8H62.7z"/>
<path fill="#181716" d="M67.1,42.5V42c-0.4,0.4-0.8,0.6-1.3,0.6c-0.5,0-0.9-0.2-1.2-0.4c-0.5-0.5-0.6-1.3-0.6-2.1
	c0-0.8,0.1-1.6,0.6-2.1c0.3-0.3,0.7-0.4,1.2-0.4c0.5,0,0.9,0.1,1.3,0.6v-2.5h1v7H67.1z M66.1,38.4c-0.9,0-1,0.8-1,1.6s0.1,1.7,1,1.7
	c0.9,0,1-0.8,1-1.7S67,38.4,66.1,38.4z"/>
<path fill="#181716" d="M72.7,42.5V42c-0.3,0.4-0.8,0.6-1.3,0.6c-0.5,0-0.9-0.2-1.2-0.4c-0.4-0.4-0.5-0.8-0.5-1.4v-3.2h1v3
	c0,0.8,0.4,1.1,1,1.1s1-0.3,1-1.1v-3h1v5H72.7z"/>
<path fill="#181716" d="M78.3,42.5v-3c0-0.8-0.4-1.1-1-1.1s-1,0.3-1,1.1v3h-1v-5h1v0.5c0.3-0.4,0.8-0.6,1.3-0.6
	c0.5,0,0.9,0.2,1.2,0.4c0.4,0.4,0.5,0.8,0.5,1.4v3.2H78.3z"/>
<path fill="#181716" d="M82.4,44.6c-0.8,0-1.2-0.2-1.7-0.7l0.6-0.6c0.3,0.3,0.6,0.4,1.1,0.4c0.8,0,1.2-0.6,1.2-1.3v-0.6
	c-0.4,0.4-0.8,0.6-1.3,0.6c-0.5,0-0.9-0.2-1.2-0.4c-0.5-0.5-0.6-1.2-0.6-2s0.1-1.5,0.6-2c0.3-0.3,0.7-0.4,1.2-0.4
	c0.5,0,0.9,0.1,1.3,0.6v-0.5h1v4.9C84.6,43.7,83.8,44.6,82.4,44.6z M82.6,38.4c-0.9,0-1,0.8-1,1.6s0.1,1.6,1,1.6s1-0.8,1-1.6
	S83.5,38.4,82.6,38.4z"/>
<path fill="#181716" d="M91.5,42.5V42c-0.3,0.4-0.8,0.6-1.3,0.6c-0.5,0-0.9-0.2-1.2-0.4c-0.4-0.4-0.5-0.8-0.5-1.4v-3.2h1v3
	c0,0.8,0.4,1.1,1,1.1s1-0.3,1-1.1v-3h1v5H91.5z"/>
<path fill="#181716" d="M97.1,42.5v-3c0-0.8-0.4-1.1-1-1.1s-1,0.3-1,1.1v3h-1v-5h1v0.5c0.3-0.4,0.8-0.6,1.3-0.6
	c0.5,0,0.9,0.2,1.2,0.4c0.4,0.4,0.5,0.8,0.5,1.4v3.2H97.1z"/>
<path fill="#181716" d="M102.4,42.5V42c-0.4,0.4-0.8,0.6-1.3,0.6c-0.5,0-0.9-0.2-1.2-0.4c-0.5-0.5-0.6-1.3-0.6-2.1
	c0-0.8,0.1-1.6,0.6-2.1c0.3-0.3,0.7-0.4,1.2-0.4c0.5,0,0.9,0.1,1.3,0.6v-2.5h1v7H102.4z M101.4,38.4c-0.9,0-1,0.8-1,1.6
	s0.1,1.7,1,1.7c0.9,0,1-0.8,1-1.7S102.3,38.4,101.4,38.4z"/>
<path fill="#181716" d="M108.5,36.5v2.1h2.9v0.9h-2.9v2.9h-1.1v-7h4.4v0.9H108.5z"/>
<path fill="#181716" d="M116.1,42c-0.3,0.3-0.8,0.6-1.5,0.6s-1.2-0.3-1.5-0.6c-0.5-0.5-0.6-1.1-0.6-2c0-0.8,0.1-1.5,0.6-1.9
	c0.3-0.3,0.8-0.6,1.5-0.6s1.2,0.3,1.5,0.6c0.5,0.5,0.6,1.1,0.6,1.9C116.7,40.9,116.6,41.5,116.1,42z M115.3,38.7
	c-0.2-0.2-0.4-0.3-0.7-0.3s-0.5,0.1-0.7,0.3c-0.3,0.3-0.3,0.8-0.3,1.4s0,1.1,0.3,1.4c0.2,0.2,0.4,0.3,0.7,0.3s0.5-0.1,0.7-0.3
	c0.3-0.3,0.3-0.8,0.3-1.4S115.6,39,115.3,38.7z"/>
<path fill="#181716" d="M120.7,38.7c-0.2-0.2-0.4-0.3-0.7-0.3c-0.5,0-1,0.4-1,1.1v3h-1v-5h1v0.5c0.3-0.4,0.8-0.6,1.3-0.6
	c0.5,0,0.8,0.1,1.2,0.5L120.7,38.7z"/>
<path fill="#181716" d="M123.8,42.6c-0.8,0-1.5-0.1-2.1-0.7l0.7-0.7c0.4,0.4,0.9,0.5,1.4,0.5c0.6,0,1.1-0.2,1.1-0.7
	c0-0.3-0.2-0.5-0.7-0.6l-0.8-0.1c-0.9-0.1-1.5-0.5-1.5-1.4c0-1,0.8-1.5,1.9-1.5c0.8,0,1.4,0.2,1.8,0.6l-0.6,0.6
	c-0.3-0.3-0.8-0.4-1.2-0.4c-0.6,0-0.9,0.3-0.9,0.6c0,0.3,0.2,0.5,0.7,0.6l0.7,0.1c1,0.1,1.6,0.5,1.6,1.4
	C125.9,42.1,125,42.6,123.8,42.6z"/>
<path fill="#181716" d="M129,42.6c-1.1,0-2.2-0.7-2.2-2.5s1.1-2.5,2.2-2.5c0.7,0,1.2,0.2,1.6,0.7l-0.7,0.7c-0.3-0.3-0.6-0.5-0.9-0.5
	c-0.4,0-0.7,0.2-0.9,0.4c-0.2,0.3-0.3,0.6-0.3,1.2s0.1,0.9,0.3,1.2c0.2,0.3,0.5,0.4,0.9,0.4c0.4,0,0.6-0.1,0.9-0.5l0.7,0.7
	C130.2,42.4,129.7,42.6,129,42.6z"/>
<path fill="#181716" d="M134.8,42.5v-3c0-0.8-0.4-1.1-1-1.1s-1,0.3-1,1.1v3h-1v-7h1v2.5c0.3-0.4,0.8-0.6,1.3-0.6s0.9,0.2,1.2,0.4
	c0.4,0.4,0.5,0.8,0.5,1.4v3.2H134.8z"/>
<path fill="#181716" d="M140.4,42.5V42c-0.3,0.4-0.8,0.6-1.3,0.6c-0.5,0-0.9-0.2-1.2-0.4c-0.4-0.4-0.5-0.8-0.5-1.4v-3.2h1v3
	c0,0.8,0.4,1.1,1,1.1s1-0.3,1-1.1v-3h1v5H140.4z"/>
<path fill="#181716" d="M146,42.5v-3c0-0.8-0.4-1.1-1-1.1s-1,0.3-1,1.1v3h-1v-5h1v0.5c0.3-0.4,0.8-0.6,1.3-0.6
	c0.5,0,0.9,0.2,1.2,0.4c0.4,0.4,0.5,0.8,0.5,1.4v3.2H146z"/>
<path fill="#181716" d="M150.1,44.6c-0.8,0-1.2-0.2-1.7-0.7l0.6-0.6c0.3,0.3,0.6,0.4,1.1,0.4c0.8,0,1.2-0.6,1.2-1.3v-0.6
	c-0.4,0.4-0.8,0.6-1.3,0.6c-0.5,0-0.9-0.2-1.2-0.4c-0.5-0.5-0.6-1.2-0.6-2s0.1-1.5,0.6-2c0.3-0.3,0.7-0.4,1.2-0.4
	c0.5,0,0.9,0.1,1.3,0.6v-0.5h1v4.9C152.3,43.7,151.5,44.6,150.1,44.6z M150.3,38.4c-0.9,0-1,0.8-1,1.6s0.1,1.6,1,1.6s1-0.8,1-1.6
	S151.2,38.4,150.3,38.4z"/>
</svg>
