<?xml version="1.0" encoding="utf-8"?>
<!-- Generator: Adobe Illustrator 21.0.0, SVG Export Plug-In . SVG Version: 6.00 Build 0)  -->
<svg version="1.1" id="Layer_1" xmlns="http://www.w3.org/2000/svg" xmlns:xlink="http://www.w3.org/1999/xlink" x="0px" y="0px"
	 viewBox="0 0 417.9 297" style="enable-background:new 0 0 417.9 297;" xml:space="preserve">
<style type="text/css">
	.st0{fill:#1E1E1C;}
	.st1{fill:#FF8282;}
	.st2{fill:#FF645F;}
	.st3{fill:#8CDBA6;}
	.st4{fill:#21D68F;}
	.st5{fill:#00ABFA;}
	.st6{fill:#BD3B38;}
	.st7{fill:#00B05C;}
	.st8{fill:#78CCC7;}
	.st9{fill:#96DBD6;}
	.st10{fill:#40A6A6;}
</style>
<g id="Ebene_2">
</g>
<g id="Ebene_1">
	<g>
		<g>
			<g>
				<path class="st0" d="M258.9,91.1c-1.5-0.9-2.5-1.3-3.8-1.3c-2.3,0-3.5,1.4-3.5,4.5v1.5h9.2v3.6h-9.2v20.1h-4V99.4H241v-3.6h6.7
					v-1.5c0-5.7,2.8-8.1,7.3-8.1c2.2,0,3.6,0.6,4.9,1.4L258.9,91.1z"/>
				<path class="st0" d="M274,116.3c4.9,0,7.6-4.1,7.6-8.7c0-4.6-2.8-8.7-7.6-8.7c-4.8,0-7.6,4.1-7.6,8.7
					C266.4,112.2,269.2,116.3,274,116.3 M274,95.4c7.2,0,11.7,5.7,11.7,12.2c0,6.5-4.4,12.2-11.7,12.2c-7.2,0-11.7-5.7-11.7-12.2
					C262.4,101.1,266.8,95.4,274,95.4"/>
				<path class="st0" d="M307.1,103.3c-0.3-2.7-1.7-4.3-4.6-4.3c-4.1,0-8,3.9-8,12v8.6h-4V95.8h4v4.4c1.8-2.9,4.8-4.8,8.8-4.8
					c4.7,0,7.5,2.8,7.8,7.9L307.1,103.3L307.1,103.3z"/>
				<path class="st0" d="M260.2,160.7c-1.5,3.3-4.8,4.8-8.3,4.8c-7.2,0-13.3-5.5-13.3-16.9c0-11.4,6.2-16.8,13.6-16.8
					c6.5,0,10.4,4.2,11.8,10l-3.9,1.2c-1.5-4.8-3.8-7.2-7.9-7.2c-5.6,0-9.3,3.9-9.3,12.9c0,9,3.7,12.9,9.3,12.9c4.5,0,7-3.2,7.4-9.1
					h-7.4v-4h11.7v16.6h-3.4L260.2,160.7z"/>
				<path class="st0" d="M272,150.5h14.1c-0.7-3.8-3.2-5.9-7.1-5.9C275.2,144.6,272.8,146.9,272,150.5 M290.3,154.1h-18.5
					c0.2,4.7,3.1,7.8,7.3,7.8c3.6,0,6-1.7,7.6-4.7l3.2,1.6c-2.6,5-6.4,6.6-10.8,6.6c-6.9,0-11.3-5.3-11.3-12.2
					c0-6.7,4.2-12.2,11.3-12.2c7.3,0,11.2,5.2,11.2,11.4V154.1z"/>
				<path class="st0" d="M311,148.9c-0.3-2.7-1.7-4.3-4.6-4.3c-4.1,0-8,3.9-8,12v8.6h-4v-23.7h4v4.4c1.8-2.9,4.8-4.8,8.8-4.8
					c4.7,0,7.5,2.8,7.8,7.9L311,148.9L311,148.9z"/>
				<path class="st0" d="M343.1,165.1h-4v-16.8c0-2.6-0.8-3.6-2.6-3.6c-2.3,0-4.2,2.7-4.2,9.3v11.2h-4v-16.8c0-2.6-0.8-3.6-2.6-3.6
					c-2.3,0-4.2,2.7-4.2,9.3v11.2h-4v-23.7h4v3c1.2-2,3.1-3.4,5.6-3.4c2.7,0,4.2,1.5,4.9,3.9c1.2-2.3,3.3-3.9,5.8-3.9
					c2.9,0,5.2,1.9,5.2,6.4L343.1,165.1L343.1,165.1z"/>
				<path class="st0" d="M355.4,161.9c3.1,0,7.6-1.9,7.6-7.2v-0.8h-5.2c-4,0-6.3,1.7-6.3,4.4C351.5,160.5,353.1,161.9,355.4,161.9
					 M367,165.1h-3.2l-0.6-3.3c-1.5,2.2-4.8,3.7-8.4,3.7c-4,0-7.3-2.4-7.3-7.2c0-5.3,4.2-7.8,10.7-7.8h4.8v-1c0-3.7-2.6-4.9-5.5-4.9
					c-2.8,0-4.8,1.7-5.6,4l-3.5-0.9c1.1-4.1,4.8-6.7,9.1-6.7c5.6,0,9.4,2.6,9.4,9.1L367,165.1L367,165.1z"/>
				<path class="st0" d="M392.1,165.1h-4v-15.7c0-3.3-1.6-4.9-4.4-4.9c-3.7,0-7,4-7,11v9.6h-4v-23.7h4v4.4c1.7-2.7,4.7-4.8,8-4.8
					c4.9,0,7.3,3,7.3,7.6L392.1,165.1L392.1,165.1z"/>
			</g>
			<polygon class="st0" points="413.6,141.4 406.6,158.8 398.6,141.4 394.2,141.4 404.4,163.5 399.8,174.7 403.8,174.7 417.9,141.4 
							"/>
		</g>
		<g>
			<polygon class="st1" points="59.8,85.1 59.8,86.4 59.8,168.2 66.7,168.2 68.6,168.2 70.2,168.2 70.2,85.1 			"/>
			<g>
				<path class="st2" d="M101.1,176c0.7,0,1.7-0.6,1.7-1.4V77.3c0-0.7-0.9-1.3-1.7-1.3H68.6c-0.7,0-1,0.3-1,0.6v1.9v6.5
					c0,0.7,0.2,1.3,1,1.3h22.1c0.7,0,1.6,0.6,1.6,1.3v76.6c0,0.7-0.9,1.3-1.6,1.3H68.6c-0.7,0-1,0.2-1,0.6v1.9v6.5
					c0,0.7,0.2,1.4,1,1.4C68.6,176,101.1,176,101.1,176z"/>
			</g>
			<polygon class="st3" points="115.7,85.1 115.7,86.4 115.7,168.2 124.4,168.2 126.1,168.2 126.1,85.1 			"/>
			<g>
				<path class="st4" d="M124.8,175.9v-10.4c14.3,0,24.3-17.8,24.3-39.6c0-21.8-10-39.6-24.3-39.6V76c19.5,0,34.6,22.4,34.6,50
					C159.4,153.5,144.3,175.9,124.8,175.9"/>
				<path class="st5" d="M17,144v14.3v4.6c0,7.8,5,13.1,12.8,13.1H32h6.4h7.5c0.4,0,1-0.6,1-1.4v-7.8c0-0.7-0.9-1.2-1.6-1.2h-7.5H34
					h-2.4c-3.4,0-4.2-1.6-4.2-5.4v-6.1v-8.5v-7.6c0-7.8-3.2-10.7-7.1-12.1c3.9-1.4,7.1-4.3,7.1-12.1v-5.4V94.6v-3.3
					c0-3.8,0.8-4.9,4.2-4.9h2.9h3.7h7.6c0.4,0,1-0.6,1-1.3v-7.8c0-0.7-0.9-1.3-1.6-1.3H39h-5.9h-3.3C22,76,17,81.1,17,88.7v4.1v17
					c0,0-0.3,3.9-0.4,5.2c-0.5,3.5-4.8,6.5-7.5,6.5H5c-0.7,0-1,0.6-1,1.3v7.8c0,0.7,0.3,1.3,1,1.3h3.7c3.4,0,7.7,2.8,8,7.1
					C16.8,140.2,17,144,17,144"/>
				<path class="st6" d="M68.6,76h-3.7h-4.1c-0.7,0-1,0.6-1,1.3v2.4v5.4v1.3h1h7.8h1.6v-1.3v-7.8V76H68.6z"/>
				<path class="st6" d="M59.8,166.9v3.7v4.1c0,0.7,0.3,1.4,1,1.4h2.4h5.4h1.6v-1.4v-7.8v-1.2h-1.6h-7.8h-1
					C59.8,165.6,59.8,166.9,59.8,166.9z"/>
				<path class="st7" d="M124.4,76h-3.7h-4.1c-0.7,0-0.9,0.6-0.9,1.3v2.4v5.4v1.3h0.9h7.8h1.7v-1.3v-7.8V76H124.4z"/>
				<path class="st7" d="M115.7,166.9v3.7v4.1c0,0.7,0.2,1.4,0.9,1.4h2.4h5.4h1.7v-1.4v-7.8v-1.2h-1.7h-7.8h-0.9V166.9z"/>
				<path class="st8" d="M180.6,144v14.3v4.6c0,7.8,4.9,13.1,12.7,13.1h2.2h6.4h7.5c0.4,0,1.1-0.6,1.1-1.4v-7.8c0-0.7-1-1.2-1.7-1.2
					h-7.5h-3.8h-2.4c-3.4,0-4.1-1.4-4.1-5.3v-2.3v-12.5v-7.6c0-2.5-0.7-4.8-1.3-6.1h-17.4c4.8,1.3,6.8,3,7.8,7.2
					C180.6,141.1,180.6,144,180.6,144"/>
				<path class="st8" d="M179.9,115c-1,3.4-3.2,5.2-7.3,6.5H189c1-2.6,2-4.3,2-7.8v-5.4V94.6v-3.3c0-3.8,0.7-4.9,4.1-4.9h2.9h3.7
					h7.6c0.4,0,1.1-0.6,1.1-1.3v-7.8c0-0.7-1-1.3-1.7-1.3h-6.2h-5.9h-3.3c-7.9,0-12.7,5.1-12.7,12.7v4.1v17
					C180.6,109.8,180.4,113.3,179.9,115"/>
				<path class="st9" d="M182.4,126.7c2.6,1,5.5,2.5,7.3,5.1h19.1c0.7,0,1.7-0.6,1.7-1.3v-7.8c0-0.7-1-1.3-1.7-1.3H189
					C187.7,124.1,184.6,125.9,182.4,126.7"/>
				<path class="st10" d="M168.5,121.5c-0.7,0-0.9,0.6-0.9,1.3v7.8c0,0.7,0.2,1.3,0.9,1.3h3.7h17.4c-1.2-2.6-4.1-4.4-6.2-5.2
					c2.2-0.8,4.1-2.6,5.4-5.2h-16.4L168.5,121.5L168.5,121.5z"/>
			</g>
		</g>
	</g>
</g>
</svg>
