<?xml version="1.0" encoding="utf-8"?>
<!-- Generator: Adobe Illustrator 22.0.1, SVG Export Plug-In . SVG Version: 6.00 Build 0)  -->
<svg version="1.1" id="Layer_1" xmlns="http://www.w3.org/2000/svg" xmlns:xlink="http://www.w3.org/1999/xlink" x="0px" y="0px"
	 viewBox="0 0 735 123.7" style="enable-background:new 0 0 735 123.7;" xml:space="preserve">
<style type="text/css">
	.st0{fill:#FFFFFF;}
</style>
<g>
	<rect x="202.8" y="43.1" class="st0" width="14" height="14"/>
	<polygon class="st0" points="173.8,43.1 202.8,43.1 202.8,29.1 159.8,29.1 159.8,100.1 173.8,100.1 173.8,71.1 202.8,71.1 
		202.8,57.1 173.8,57.1 	"/>
	<polygon class="st0" points="301.8,57.1 287.8,57.1 287.8,71.1 301.8,71.1 301.8,100.1 315.8,100.1 315.8,29.1 301.8,29.1 	"/>
	<rect x="230.8" y="29.1" class="st0" width="14" height="71"/>
	<polygon class="st0" points="273.8,43.1 273.8,29.1 259.8,29.1 259.8,100.1 273.8,100.1 273.8,57.1 287.8,57.1 287.8,43.1 	"/>
	<rect x="101.8" y="86.1" class="st0" width="29" height="14"/>
	<rect x="202.8" y="71.1" class="st0" width="14" height="29"/>
	<polygon class="st0" points="30.8,43.1 45.8,43.1 45.8,100.1 59.8,100.1 59.8,43.1 73.8,43.1 73.8,29.1 30.8,29.1 	"/>
	<rect x="87.8" y="29.1" class="st0" width="14" height="57"/>
	<rect x="130.8" y="29.1" class="st0" width="14" height="57"/>
	<rect x="344.8" y="29.1" class="st0" width="29" height="14"/>
	<polygon class="st0" points="575.8,86.1 575.8,72 561.8,72.1 561.8,86.1 	"/>
	<rect x="590.8" y="29.1" class="st0" width="14" height="57"/>
	<path class="st0" d="M503.7,31.1l-9.9,0l-0.1-21l-83.9,0.3l0.1,20.7l-10.1,0l0.1,21l10.9,0l0.1,52l4.9,0l0,10l10,0l0-10l52-0.2
		l0,10.2l10,0l0-10l5,0l-0.2-52l11.2,0L503.7,31.1z M425.8,93.6c-2.6,0-5.2-2.1-5.2-5.2c0-3.1,2.6-5.2,5.2-5.2
		c3.1,0,5.2,2.1,5.2,5.2C431,91.5,428.9,93.6,425.8,93.6z M440.8,93.4l0-10.4l21-0.1l0,10.4C454.7,99,447.7,99.2,440.8,93.4z
		 M477.7,93.4c-2.6,0-5.2-2.1-5.2-5.2c0-3.1,2.6-5.2,5.2-5.2c3.1,0,5.2,2.1,5.2,5.2S480.8,93.4,477.7,93.4z M420.8,73.3l-0.2-52.2
		l31.5-0.1l-21,21.1l9.9,0l20.8-21l20.8-0.1l0.2,52.1L420.8,73.3z"/>
	<rect x="604.8" y="86.1" class="st0" width="29" height="14"/>
	<polygon class="st0" points="532.8,44.1 561.8,44.1 561.8,29.1 518.8,29.1 518.8,100.1 561.8,100.1 561.8,86.1 532.8,86.1 
		532.8,72.1 561.8,72.1 561.8,58.1 532.8,58.1 	"/>
	<rect x="633.8" y="29.1" class="st0" width="14" height="57"/>
	<rect x="330.8" y="43.1" class="st0" width="14" height="43"/>
	<rect x="561.8" y="44.1" class="st0" width="14" height="14"/>
	<polygon class="st0" points="358.8,72.1 372.8,72.1 372.8,86.1 344.8,86.1 344.8,100.1 373.8,100.1 373.8,86.1 387.8,86.1 
		387.8,57.1 358.8,57.1 	"/>
	<polygon class="st0" points="704.8,43.1 704.8,29.1 675.8,29.1 675.8,43 661.8,43.1 661.8,57.1 675.8,57.1 675.8,43.1 	"/>
	<polygon class="st0" points="689.8,72.1 689.8,86.1 661.8,86.1 661.8,100.1 690.8,100.1 690.8,86.1 704.8,86.1 704.8,72.1 
		690.8,72.1 690.8,57.1 675.8,57.1 675.8,72.1 	"/>
</g>
</svg>
